<svg width="897.2" height="103.001" viewBox="0 0 897.2 103.001" xmlns="http://www.w3.org/2000/svg"><g id="svgGroup" stroke-linecap="round" fill-rule="evenodd" font-size="9pt" stroke="#ffffff" stroke-width="0.25mm" fill="#ffffff" style="stroke:#ffffff;stroke-width:0.25mm;fill:#ffffff"><path d="M 537.1 55.501 L 537.1 58.001 Q 537.2 61.601 540.1 63.101 Q 543 64.601 546.7 64.701 Q 554.5 64.701 561.8 58.501 Q 564.5 56.201 566.2 54.251 A 15.291 15.291 0 0 1 566.882 53.515 A 8.677 8.677 0 0 1 567.234 53.177 A 173.227 173.227 0 0 1 566.145 45.118 A 216.192 216.192 0 0 1 566 43.801 Q 564.8 34.301 567.4 30.201 Q 569.6 27.001 576 27.001 Q 578.4 27.001 579.7 28.451 Q 581 29.901 581 31.601 Q 581 38.301 578.6 46.801 Q 578.8 50.001 578.8 53.001 Q 578.8 56.001 579.2 58.201 Q 580.7 62.201 583 63.101 Q 585 63.101 587.4 59.651 Q 589.8 56.201 592.3 51.401 Q 591.1 46.801 591.1 42.701 Q 591.1 35.501 593.3 32.201 Q 596 28.001 601.5 28.001 Q 607 28.001 608.8 32.201 Q 609.5 33.801 609.5 35.801 Q 609.5 39.401 607.7 43.151 Q 605.9 46.901 601.9 53.001 Q 603.7 58.301 607.3 58.301 A 11.125 11.125 0 0 0 614.839 55.259 A 31.658 31.658 0 0 1 615.548 51.457 A 39.546 39.546 0 0 1 616.8 47.351 Q 619 41.301 622.65 36.901 Q 626.3 32.501 631.1 30.051 Q 635.9 27.601 641.35 27.601 Q 646.8 27.601 649.75 30.301 Q 652.7 33.001 652.7 37.301 Q 652.7 41.601 650.55 44.351 Q 648.4 47.101 645 48.951 Q 641.6 50.801 637.45 52.251 Q 633.3 53.701 629.3 55.501 L 629.3 58.001 Q 629.4 61.601 632.3 63.101 Q 635.2 64.601 638.9 64.701 Q 646.7 64.701 654 58.501 Q 656.7 56.201 658.4 54.251 A 15.291 15.291 0 0 1 658.417 54.232 A 74.864 74.864 0 0 1 658.791 48.17 A 91.655 91.655 0 0 1 659.4 43.401 Q 661.4 30.401 667.1 19.401 Q 670 13.801 673.6 9.801 Q 681.5 1.001 691.2 1.101 Q 695.5 1.101 697.95 3.451 Q 700.4 5.801 700.4 10.201 Q 700.4 14.601 697.8 19.051 Q 695.2 23.501 691.15 28.251 Q 687.1 33.001 682.2 38.201 Q 677.3 43.401 672.6 49.501 L 672.6 53.501 Q 672.6 59.101 675 61.701 Q 677.4 64.301 680.6 64.301 A 16.888 16.888 0 0 0 691.367 60.374 A 26.933 26.933 0 0 0 694.899 56.92 A 25.13 25.13 0 0 1 694.9 56.701 Q 694.8 44.801 702.4 36.201 Q 710 27.601 722.3 27.601 Q 727.9 27.601 731.3 29.001 Q 737.2 31.401 737.2 33.501 Q 737.2 35.101 728.95 35.151 Q 720.7 35.201 715.15 40.851 Q 709.6 46.501 709.6 55.101 Q 709.6 59.601 712.25 62.651 Q 714.9 65.701 719.75 65.701 Q 724.6 65.701 727.8 63.701 Q 720.7 58.901 720.7 49.801 Q 720.6 45.001 724.15 41.051 Q 727.7 37.101 733.25 37.051 Q 738.8 37.001 741.2 40.101 Q 743.6 43.201 743.6 48.051 Q 743.6 52.901 741.3 58.301 L 741.9 58.301 A 11.125 11.125 0 0 0 747.931 56.456 A 164.543 164.543 0 0 1 752 42.629 A 204.202 204.202 0 0 1 757.4 28.501 Q 758.6 25.701 761.65 25.701 Q 764.7 25.701 767.5 31.101 Q 768.3 32.501 768.6 33.701 Q 773.8 27.801 781.9 27.801 Q 793.5 27.801 796.6 37.201 Q 797.5 40.001 797.5 43.401 Q 797.5 51.001 792.55 58.401 Q 787.6 65.801 780.6 68.401 L 781.8 68.401 Q 789.1 68.401 796.6 63.001 Q 800.893 59.96 803.546 56.719 A 24.229 24.229 0 0 0 803.821 56.377 A 31.658 31.658 0 0 1 804.648 51.457 A 39.546 39.546 0 0 1 805.9 47.351 Q 808.1 41.301 811.75 36.901 Q 815.4 32.501 820.2 30.051 Q 825 27.601 830.45 27.601 Q 835.9 27.601 838.85 30.301 Q 841.8 33.001 841.8 37.301 Q 841.8 41.601 839.65 44.351 Q 837.5 47.101 834.1 48.951 Q 830.7 50.801 826.55 52.251 Q 822.4 53.701 818.4 55.501 L 818.4 58.001 Q 818.5 61.601 821.4 63.101 Q 824.3 64.601 828 64.701 Q 835.8 64.701 843.1 58.501 Q 845.8 56.201 847.5 54.251 A 15.291 15.291 0 0 1 848.182 53.515 A 8.677 8.677 0 0 1 848.681 53.047 A 74.895 74.895 0 0 1 848.714 52.783 A 48.005 48.005 0 0 1 849.05 50.551 Q 850.1 44.601 853.2 38.501 Q 848.6 34.101 848.6 30.901 Q 848.6 24.201 855.8 24.201 Q 859.5 24.201 862.3 28.101 Q 864.3 30.801 865.2 34.401 Q 866.6 34.901 868.7 34.901 Q 871.6 34.901 875.4 33.001 L 878 31.701 Q 879.2 31.101 880.1 31.101 Q 883 31.101 885.9 39.601 Q 885 43.501 883.95 47.101 Q 882.9 50.701 881.5 55.801 Q 880.1 60.901 880.05 62.651 Q 880 64.401 881.1 64.401 Q 882.6 64.401 884.8 62.501 Q 887 60.601 889.2 58.351 Q 891.4 56.101 893.25 54.201 Q 895.1 52.301 895.8 52.301 Q 897.2 52.301 897.2 55.701 Q 897.2 62.601 891.15 69.301 Q 885.1 76.001 877.3 75.901 Q 872.7 75.901 870.4 72.201 Q 868.1 68.501 868 63.201 Q 868 52.701 872.7 43.301 Q 870.5 44.201 867.75 44.201 Q 865 44.201 863.8 44.001 Q 862.9 47.801 862 51.651 Q 861.1 55.501 861.1 58.801 L 861.7 71.001 Q 861.7 73.401 859.2 75.301 Q 856.7 77.201 852.4 77.201 Q 849.9 77.201 848.95 74.601 Q 848 72.001 848 67.001 A 177.6 177.6 0 0 1 848.013 64.746 A 17.413 17.413 0 0 1 848 64.763 Q 846.75 66.451 845 68.101 Q 836.4 76.201 821.4 76.201 Q 809.5 76.201 805.2 67.601 A 11.72 11.72 0 0 1 804.864 66.843 A 28.316 28.316 0 0 1 786.5 76.401 Q 778.4 77.301 775 76.701 Q 771.6 76.101 769.8 75.201 Q 765.9 73.201 765.9 69.201 Q 765.9 67.001 766.8 65.201 Q 774.7 65.201 778.8 59.201 Q 782.9 53.201 782.9 44.201 Q 782.9 42.001 781.3 40.251 Q 779.7 38.501 777.05 38.501 Q 774.4 38.501 771.3 40.801 Q 768.2 43.101 766.35 46.551 Q 764.5 50.001 763 53.351 Q 761.5 56.701 760.6 61.801 Q 759 71.001 756.95 85.051 Q 754.9 99.101 754.4 100.151 Q 753.9 101.201 752.9 102.101 Q 751.9 103.001 750.8 103.001 Q 748.8 103.001 747.5 101.801 Q 743.9 98.701 743.3 97.051 Q 742.7 95.401 742.7 92.801 Q 742.7 84.616 745.002 70.92 A 320.968 320.968 0 0 1 745.607 67.444 A 11.52 11.52 0 0 1 743.15 67.701 Q 738.8 67.701 735.8 67.101 Q 727.9 76.401 716.85 76.401 Q 705.8 76.401 700.3 70.751 A 18.844 18.844 0 0 1 697.086 66.352 A 25.838 25.838 0 0 1 694.6 69.151 Q 691.6 72.101 687.7 74.001 Q 683.8 75.901 679.7 75.901 Q 665.4 76.001 660.2 65.201 A 17.117 17.117 0 0 1 659.605 63.751 A 17.413 17.413 0 0 1 658.9 64.763 Q 657.65 66.451 655.9 68.101 Q 647.3 76.201 632.3 76.201 Q 620.4 76.201 616.1 67.601 A 11.72 11.72 0 0 1 615.296 65.428 A 12.718 12.718 0 0 1 610.795 67.122 A 17.574 17.574 0 0 1 607.6 67.401 Q 600.5 67.401 596.3 61.201 Q 584.6 76.401 576.7 76.401 Q 573.6 76.401 570.6 67.601 A 67.689 67.689 0 0 1 568.862 61.495 A 111.574 111.574 0 0 1 568.783 61.158 A 23.657 23.657 0 0 1 568.7 61.351 Q 567.2 64.801 563.7 68.101 Q 555.1 76.201 540.1 76.201 Q 528.2 76.201 523.9 67.601 Q 522.4 64.601 522.4 59.001 Q 522.4 53.401 524.6 47.351 Q 526.8 41.301 530.45 36.901 Q 534.1 32.501 538.9 30.051 Q 543.7 27.601 549.15 27.601 Q 554.6 27.601 557.55 30.301 Q 560.5 33.001 560.5 37.301 Q 560.5 41.601 558.35 44.351 Q 556.2 47.101 552.8 48.951 Q 549.4 50.801 545.25 52.251 Q 541.1 53.701 537.1 55.501 Z M 103.4 58.301 L 104 58.301 Q 108.4 58.201 111.6 55.201 Q 112.8 54.001 113.65 53.101 A 3.721 3.721 0 0 1 114.183 52.628 A 2.36 2.36 0 0 1 114.251 52.58 A 177.567 177.567 0 0 1 116.2 45.201 Q 118.4 37.401 121.2 30.601 Q 113.7 27.301 113.7 24.701 Q 113.7 22.901 115 22.901 Q 117 22.901 119.1 23.751 Q 121.2 24.601 123.6 25.101 Q 131.6 8.001 142 2.801 Q 145.6 1.001 149.2 1.001 Q 155.9 1.101 158.25 4.201 Q 160.6 7.301 160.6 12.201 Q 160.5 21.501 152.6 26.851 Q 144.7 32.201 133.3 32.801 Q 130.4 40.501 128.8 49.201 Q 132.7 47.701 138.8 47.701 Q 139.6 54.001 141.6 56.701 Q 143.6 59.401 146.05 59.401 Q 148.5 59.401 150.15 58.201 Q 151.8 57.001 153.05 55.501 Q 154.3 54.001 155.15 52.801 A 5.174 5.174 0 0 1 155.546 52.304 A 3.004 3.004 0 0 1 155.853 52.007 A 46.766 46.766 0 0 1 156.035 49.561 Q 156.55 44.194 158.2 36.701 L 153.7 36.701 Q 152.5 36.701 152.5 35.701 Q 152.5 33.301 152.95 31.751 Q 153.4 30.201 155.1 28.201 L 157.5 28.201 Q 158.9 28.201 160.5 28.101 Q 165.3 12.701 170.3 12.701 Q 174.3 12.801 175.9 17.801 Q 176.3 19.201 176.8 20.801 L 172.7 28.001 Q 179.7 28.201 181.55 28.201 Q 183.4 28.201 183.55 28.551 Q 183.7 28.901 183.7 29.601 Q 183.7 31.401 182.85 34.101 Q 182 36.801 180.9 36.701 L 170.9 36.201 Q 168.8 48.401 168.8 56.401 Q 168.8 64.401 171.1 64.401 Q 173 64.401 178 61.251 Q 183 58.101 185.2 55.201 Q 186.146 53.954 186.944 53.244 A 5.257 5.257 0 0 1 187.286 52.957 A 210.043 210.043 0 0 1 187 51.201 Q 185.6 42.601 185.6 39.401 Q 185.8 32.801 187.4 30.201 Q 189.6 27.001 196 27.001 Q 198.4 27.001 199.7 28.451 Q 201 29.901 201 31.601 Q 201 38.301 198.6 46.801 Q 198.8 50.001 198.8 53.001 Q 199 59.401 200.4 61.801 Q 201.4 63.101 203 63.101 Q 206.1 63.101 210.7 58.701 Q 207.2 50.401 207.2 43.701 Q 207.2 30.001 220.1 30.001 Q 224.5 30.001 227.45 32.551 Q 230.4 35.101 230.4 38.901 Q 230.4 46.901 221.5 58.101 Q 225.2 62.501 227.5 63.201 Q 230.8 63.201 237.4 51.001 Q 236.2 46.501 236.2 42.601 Q 236.2 35.501 238.4 32.201 Q 241.1 28.001 247.35 28.001 Q 253.6 28.001 254.4 33.101 Q 254.6 34.601 254.6 36.301 Q 254.6 42.701 247.5 54.001 Q 250 57.601 252.2 58.301 Q 256.8 58.301 260 55.201 A 36.276 36.276 0 0 0 260.69 54.552 A 41.178 41.178 0 0 1 261.789 49.563 A 31.337 31.337 0 0 1 271.5 34.501 Q 276.3 30.401 280.45 29.101 Q 284.6 27.801 289.2 27.801 Q 293.8 27.801 296.7 29.401 Q 298.1 26.501 299.9 26.501 Q 303.4 26.501 306.55 29.551 Q 309.7 32.601 309.7 35.301 Q 308.3 38.601 305.6 43.201 Q 304.8 47.801 304.8 56.101 Q 304.8 64.401 306.9 64.401 Q 309.5 64.401 319.5 54.001 Q 320.224 53.196 320.787 52.715 A 5.396 5.396 0 0 1 321.161 52.418 A 48.005 48.005 0 0 1 321.45 50.551 Q 322.5 44.601 325.6 38.501 Q 321 34.101 321 30.901 Q 321 24.201 328.2 24.201 Q 331.9 24.201 334.7 28.101 Q 336.7 30.801 337.6 34.401 Q 339 34.901 341.1 34.901 Q 344 34.901 347.8 33.001 L 350.4 31.701 Q 351.6 31.101 352.5 31.101 Q 355.4 31.101 358.3 39.601 Q 357.4 43.501 356.35 47.101 Q 355.3 50.701 353.9 55.801 Q 352.5 60.901 352.45 62.651 Q 352.4 64.401 353.5 64.401 Q 355 64.401 357.2 62.501 Q 359.4 60.601 361.6 58.351 A 3156.185 3156.185 0 0 0 363.713 56.188 A 2442.62 2442.62 0 0 0 363.741 56.159 A 31.658 31.658 0 0 1 364.548 51.457 A 39.546 39.546 0 0 1 365.8 47.351 Q 368 41.301 371.65 36.901 Q 375.3 32.501 380.1 30.051 Q 384.9 27.601 390.35 27.601 Q 395.8 27.601 398.75 30.301 Q 401.7 33.001 401.7 37.301 Q 401.7 41.601 399.55 44.351 Q 397.4 47.101 394 48.951 Q 390.6 50.801 386.45 52.251 Q 382.3 53.701 378.3 55.501 L 378.3 58.001 Q 378.4 61.601 381.3 63.101 Q 384.2 64.601 387.9 64.701 Q 395.7 64.701 403 58.501 Q 405.7 56.201 407.4 54.251 Q 409.1 52.301 410 52.301 Q 411.4 52.301 411.4 55.101 Q 411.4 57.901 409.9 61.351 Q 408.4 64.801 404.9 68.101 Q 396.3 76.201 381.3 76.201 Q 369.4 76.201 365.1 67.601 A 11.72 11.72 0 0 1 365.058 67.514 A 25.532 25.532 0 0 1 364.502 68.2 A 33.426 33.426 0 0 1 363.55 69.301 Q 357.5 76.001 349.7 75.901 Q 345.1 75.901 342.8 72.201 Q 340.5 68.501 340.4 63.201 Q 340.4 52.701 345.1 43.301 Q 342.9 44.201 340.15 44.201 Q 337.4 44.201 336.2 44.001 Q 335.3 47.801 334.4 51.651 Q 333.5 55.501 333.5 58.801 L 334.1 71.001 Q 334.1 73.401 331.6 75.301 Q 329.1 77.201 324.8 77.201 Q 322.3 77.201 321.35 74.601 Q 320.4 72.001 320.4 67.001 A 177.6 177.6 0 0 1 320.413 64.744 A 26.414 26.414 0 0 1 317.367 68.214 A 30.368 30.368 0 0 1 316.35 69.151 Q 313 72.101 308.9 74.001 Q 304.8 75.901 300.9 75.901 Q 295.6 75.901 293.8 66.601 Q 291.2 70.901 287 73.651 Q 282.8 76.401 275.75 76.401 Q 268.7 76.401 264.4 72.001 A 14.353 14.353 0 0 1 260.597 65.22 A 12.628 12.628 0 0 1 256.55 66.922 Q 254.557 67.401 252.2 67.401 Q 246.4 67.401 242.1 61.801 Q 236.9 68.601 233.5 71.301 Q 227.3 76.401 223.8 76.401 Q 222.1 76.401 219.45 73.551 Q 216.8 70.701 214.2 66.101 Q 209.4 70.601 204.7 73.501 Q 200 76.401 196.8 76.401 Q 193.22 76.401 190.325 66.798 A 82.807 82.807 0 0 1 188.819 60.945 A 15.248 15.248 0 0 1 187.993 62.36 A 18.884 18.884 0 0 1 187.8 62.651 Q 185.4 66.201 181.75 69.151 Q 178.1 72.101 173.65 74.001 Q 169.2 75.901 165.9 75.901 Q 162.6 75.901 160.85 74.351 Q 159.1 72.801 157.95 70.151 Q 156.8 67.501 156.3 63.951 A 40.258 40.258 0 0 1 156.237 63.47 A 14.236 14.236 0 0 1 155.5 64.551 Q 152.5 68.501 146.3 68.501 Q 136.6 68.501 132.5 63.401 Q 134.7 85.401 134.7 89.601 Q 134.7 97.101 130 100.301 Q 126.1 103.001 120.05 103.001 Q 114 103.001 111.65 100.251 Q 109.3 97.501 109.3 93.701 A 177.567 177.567 0 0 1 111.582 65.845 A 13.158 13.158 0 0 1 109.444 66.926 A 11.52 11.52 0 0 1 105.25 67.701 Q 100.9 67.701 97.9 67.101 Q 90 76.401 78.95 76.401 Q 67.9 76.401 62.4 70.751 Q 56.9 65.101 57 56.701 Q 56.9 44.801 64.5 36.201 Q 72.1 27.601 84.4 27.601 Q 90 27.601 93.4 29.001 Q 99.3 31.401 99.3 33.501 Q 99.3 35.101 91.05 35.151 Q 82.8 35.201 77.25 40.851 Q 71.7 46.501 71.7 55.101 Q 71.7 59.601 74.35 62.651 Q 77 65.701 81.85 65.701 Q 86.7 65.701 89.9 63.701 Q 82.8 58.901 82.8 49.801 Q 82.7 45.001 86.25 41.051 Q 89.8 37.101 95.35 37.051 Q 100.9 37.001 103.3 40.101 Q 105.7 43.201 105.7 48.051 Q 105.7 52.901 103.4 58.301 Z M 444.9 58.301 Q 444.9 57.101 446.5 57.101 Q 448.1 57.101 456.4 59.301 Q 458.3 42.901 467.1 23.701 Q 470.2 16.701 474.5 16.701 Q 475.3 16.701 476.05 18.401 Q 476.8 20.101 476.8 22.601 Q 476.8 25.601 473.65 39.101 Q 470.5 52.601 469.5 62.601 Q 476.1 64.101 481.15 64.101 Q 486.2 64.101 490.4 61.451 Q 494.6 58.801 497.6 54.601 Q 503.8 45.701 503.8 33.201 Q 503.7 10.101 485.4 10.101 Q 478.9 10.201 462.4 15.901 Q 459.2 17.001 456.8 17.001 Q 454.4 17.001 454.4 15.601 Q 454.4 13.701 457.2 11.101 Q 460 8.501 464.4 6.101 Q 475.2 0.301 485.4 0.301 Q 499.4 0.301 508.4 7.801 Q 519 16.701 518.9 34.801 Q 518.9 42.501 516.5 50.001 Q 514.1 57.501 509.2 63.351 Q 504.3 69.201 496.8 72.801 Q 489.3 76.401 479.1 76.401 Q 475 76.401 468.7 74.601 Q 468 76.501 465.2 76.501 Q 460 76.501 458.15 74.751 Q 456.3 73.001 456 69.001 Q 451.2 66.301 448.05 63.401 Q 444.9 60.501 444.9 58.301 Z M 14.4 54.501 Q 14.4 63.201 21.8 63.201 Q 29.9 63.201 32.7 57.601 Q 33.7 55.601 33.7 52.451 Q 33.7 49.301 32.2 46.601 Q 29.7 42.301 23.6 37.101 Q 13.5 28.501 13.5 19.251 Q 13.5 10.001 19.3 5.001 Q 25.1 0.001 32.6 0.001 Q 40.1 0.001 44.5 3.801 Q 48.9 7.601 48.9 15.201 Q 48.9 20.201 45.55 23.901 Q 42.2 27.601 36.7 28.501 Q 39.2 30.601 41.7 32.801 Q 44.1 35.001 46.1 37.601 Q 50.5 43.501 50.5 51.701 Q 50.5 57.401 47.85 62.001 Q 45.2 66.601 40.95 69.751 Q 36.7 72.901 31.4 74.601 Q 26.1 76.301 21.5 76.301 Q 11.7 76.301 6.3 71.801 Q 0 66.701 0 57.101 Q 0 50.801 4.1 44.901 Q 8.2 39.001 12.8 39.001 Q 16.4 39.001 16.4 41.201 Q 16.4 44.401 15.4 47.551 Q 14.4 50.701 14.4 54.501 Z M 274.9 58.001 Q 274.9 65.701 280.6 65.701 Q 286.7 65.601 290.7 59.201 Q 292.1 57.001 293 53.801 Q 293 42.601 295 34.601 Q 286.9 36.201 280.9 42.401 Q 274.9 48.601 274.9 58.001 Z M 685.1 22.201 Q 687.2 19.601 688.4 17.501 Q 689.6 15.401 689.6 13.151 Q 689.6 10.901 688 10.901 Q 684.5 10.901 680.25 18.101 Q 676 25.301 673.9 37.001 Q 677.3 31.801 680.15 28.301 Q 683 24.801 685.1 22.201 Z M 123.7 95.301 Q 124.9 95.301 125.9 93.451 Q 126.9 91.601 126.9 89.501 Q 126.9 82.601 125 68.301 Q 122.5 78.601 121.6 88.801 Q 121.4 91.001 121.4 91.501 Q 121.4 95.301 123.7 95.301 Z M 33.8 26.101 Q 39.5 20.401 39.5 14.201 Q 39.5 12.301 37.5 11.001 Q 35.3 9.801 32.9 9.801 Q 27.5 9.801 25.1 13.301 Q 26.3 17.601 28.65 20.601 Q 31 23.601 33.8 26.101 Z M 148.4 10.901 Q 146.4 10.901 142.95 14.701 Q 139.5 18.501 135.9 26.301 Q 143.2 23.101 145.5 21.401 Q 150.2 18.101 150.2 13.501 Q 150.2 10.901 148.4 10.901 Z M 386.2 36.501 Q 381 36.501 379 48.601 Q 381.1 47.201 382.95 46.101 Q 384.8 45.001 386.2 44.001 Q 389.2 41.801 389.3 39.001 Q 389.3 36.501 386.2 36.501 Z M 545 36.501 Q 539.8 36.501 537.8 48.601 Q 539.9 47.201 541.75 46.101 Q 543.6 45.001 545 44.001 Q 548 41.801 548.1 39.001 Q 548.1 36.501 545 36.501 Z M 637.2 36.501 Q 632 36.501 630 48.601 Q 632.1 47.201 633.95 46.101 Q 635.8 45.001 637.2 44.001 Q 640.2 41.801 640.3 39.001 Q 640.3 36.501 637.2 36.501 Z M 826.3 36.501 Q 821.1 36.501 819.1 48.601 Q 821.2 47.201 823.05 46.101 Q 824.9 45.001 826.3 44.001 Q 829.3 41.801 829.4 39.001 Q 829.4 36.501 826.3 36.501 Z M 218.1 49.601 Q 221.4 44.501 221.4 41.451 Q 221.4 38.401 219.3 38.401 Q 217.9 38.401 217.55 39.951 Q 217.2 41.501 217.2 44.001 Q 217.2 46.501 218.1 49.601 Z M 97 55.501 Q 98.7 51.901 98.7 48.501 Q 98.7 45.101 96.5 45.101 Q 95.6 45.101 95 46.401 Q 94.4 47.701 94.4 48.901 Q 94.4 52.901 97 55.501 Z M 734.9 55.501 Q 736.6 51.901 736.6 48.501 Q 736.6 45.101 734.4 45.101 Q 733.5 45.101 732.9 46.401 Q 732.3 47.701 732.3 48.901 Q 732.3 52.901 734.9 55.501 Z" vector-effect="non-scaling-stroke"/></g></svg>